<svg xmlns="http://www.w3.org/2000/svg" xmlns:xlink="http://www.w3.org/1999/xlink" width="1080" zoomAndPan="magnify" viewBox="0 0 810 809.999993" height="1080" preserveAspectRatio="xMidYMid meet" version="1.0"><defs><clipPath id="cc673a9975"><path d="M 405 0 C 181.324219 0 0 181.324219 0 405 C 0 628.675781 181.324219 810 405 810 C 628.675781 810 810 628.675781 810 405 C 810 181.324219 628.675781 0 405 0 Z M 405 0 " clip-rule="nonzero"/></clipPath><clipPath id="d9499b33eb"><path d="M 121.222656 74.066406 L 688.972656 74.066406 L 688.972656 735.566406 L 121.222656 735.566406 Z M 121.222656 74.066406 " clip-rule="nonzero"/></clipPath></defs><g clip-path="url(#cc673a9975)"><path stroke-linecap="butt" transform="matrix(0.75, 0, 0, 0.75, 0.0000035, 0.00002)" fill="none" stroke-linejoin="miter" d="M 540.000023 -0.0000266667 C 241.765632 -0.0000266667 -0.00000466667 241.76561 -0.00000466667 540.000001 C -0.00000466667 838.234391 241.765632 1080.000028 540.000023 1080.000028 C 838.234413 1080.000028 1080.00005 838.234391 1080.00005 540.000001 C 1080.00005 241.76561 838.234413 -0.0000266667 540.000023 -0.0000266667 Z M 540.000023 -0.0000266667 " stroke="#ffc700" stroke-width="18" stroke-opacity="1" stroke-miterlimit="4"/></g><g clip-path="url(#d9499b33eb)"><path fill="#ffc700" d="M 405 74.429688 C 248.542969 74.429688 121.222656 201.71875 121.222656 358.207031 C 121.222656 568.328125 382.015625 722.257812 393.113281 728.691406 L 405 735.597656 L 416.886719 728.691406 C 427.984375 722.257812 688.773438 568.328125 688.773438 358.207031 C 688.773438 201.71875 561.453125 74.429688 405 74.429688 Z M 499.589844 370.25 L 499.589844 452.796875 L 436.53125 452.796875 L 436.53125 389.738281 L 373.46875 389.738281 L 373.46875 452.796875 L 310.40625 452.796875 L 310.40625 370.25 L 289.472656 338.878906 L 405 261.847656 L 520.527344 338.847656 Z M 499.589844 370.25 " fill-opacity="1" fill-rule="nonzero"/></g></svg>