<svg xmlns="http://www.w3.org/2000/svg" xmlns:xlink="http://www.w3.org/1999/xlink" width="1080" zoomAndPan="magnify" viewBox="0 0 810 809.999993" height="1080" preserveAspectRatio="xMidYMid meet" version="1.0"><path fill="#ffde00" d="M 405 81 C 226.058594 81 81 226.058594 81 405 C 81 456.363281 92.921875 504.824219 114.113281 547.875 C 119.941406 559.722656 122.054688 573.5625 119.234375 587.308594 L 92.289062 718.609375 L 228.886719 693.046875 C 241.988281 690.597656 255.105469 692.597656 266.441406 697.972656 C 308.402344 717.859375 355.34375 729 405 729 C 583.941406 729 729 583.941406 729 405 C 729 226.058594 583.941406 81 405 81 Z M 0 405 C 0 181.324219 181.324219 0 405 0 C 628.671875 0 810 181.324219 810 405 C 810 628.671875 628.671875 810 405 810 C 345.34375 810 288.601562 797.078125 237.507812 773.839844 L 77.566406 803.765625 C 35.144531 811.703125 -1.792969 774.117188 6.882812 731.839844 L 38.535156 577.617188 C 13.808594 525.207031 0 466.660156 0 405 Z M 0 405 " fill-opacity="1" fill-rule="evenodd"/><path fill="#ffde00" d="M 445.5 324 L 445.5 607.5 L 364.5 607.5 L 364.5 364.5 L 324 364.5 L 324 283.5 L 405 283.5 C 427.367188 283.5 445.5 301.632812 445.5 324 Z M 445.5 324 " fill-opacity="1" fill-rule="evenodd"/><path fill="#ffde00" d="M 324 567 L 486 567 L 486 648 L 324 648 Z M 324 567 " fill-opacity="1" fill-rule="evenodd"/><path fill="#ffde00" d="M 364.5 162 L 445.5 162 L 445.5 243 L 364.5 243 Z M 364.5 162 " fill-opacity="1" fill-rule="evenodd"/></svg>