<svg xmlns="http://www.w3.org/2000/svg" xmlns:xlink="http://www.w3.org/1999/xlink" width="1080" zoomAndPan="magnify" viewBox="0 0 810 809.999993" height="1080" preserveAspectRatio="xMidYMid meet" version="1.0"><defs><clipPath id="bb7d2e53e5"><path d="M 0 0 L 809.003906 0 L 809.003906 809.003906 L 0 809.003906 Z M 0 0 " clip-rule="nonzero"/></clipPath><clipPath id="aab94afd30"><path d="M 404.980469 0 C 181.316406 0 0 181.316406 0 404.980469 C 0 628.644531 181.316406 809.957031 404.980469 809.957031 C 628.644531 809.957031 809.957031 628.644531 809.957031 404.980469 C 809.957031 181.316406 628.644531 0 404.980469 0 Z M 404.980469 0 " clip-rule="nonzero"/></clipPath><clipPath id="7d2aabcaaa"><path d="M 251.5 178 L 559 178 L 559 681.925781 L 251.5 681.925781 Z M 251.5 178 " clip-rule="nonzero"/></clipPath><clipPath id="5f2154544d"><path d="M 274 126.539062 L 336 126.539062 L 336 403 L 274 403 Z M 274 126.539062 " clip-rule="nonzero"/></clipPath><clipPath id="aef71eedb2"><rect x="0" width="810" y="0" height="810"/></clipPath></defs><g transform="matrix(1, 0, 0, 1, 0, 0.000000000000039746)"><g clip-path="url(#aef71eedb2)"><g clip-path="url(#bb7d2e53e5)"><g clip-path="url(#aab94afd30)"><path stroke-linecap="butt" transform="matrix(3.210338, 0, 0, 3.210338, 0.0000035, 0.00002)" fill="none" stroke-linejoin="miter" d="M 126.14886 -0.00000622987 C 56.478915 -0.00000622987 -0.00000109023 56.47891 -0.00000109023 126.148854 C -0.00000109023 195.818799 56.478915 252.296498 126.14886 252.296498 C 195.818804 252.296498 252.296503 195.818799 252.296503 126.148854 C 252.296503 56.47891 195.818804 -0.00000622987 126.14886 -0.00000622987 Z M 126.14886 -0.00000622987 " stroke="#ffc700" stroke-width="4.205164" stroke-opacity="1" stroke-miterlimit="4"/></g></g><g clip-path="url(#7d2aabcaaa)"><path fill="#ffc700" d="M 382.421875 360.972656 C 391.78125 356.132812 403.886719 356.511719 411.355469 362.5625 C 424.4375 373.148438 420.480469 405.390625 396.304688 423.652344 C 377.65625 437.734375 358.152344 449.0625 338.304688 461.5625 C 335.84375 463.113281 334.789062 465.042969 334.554688 467.015625 C 334.226562 469.757812 335.503906 473.019531 339.199219 474.070312 C 374.816406 484.183594 399.050781 508.039062 404.960938 545.082031 C 405.546875 548.769531 407.472656 550.722656 409.839844 551.394531 C 412.203125 552.0625 416.644531 551.328125 416.925781 547.882812 C 417.628906 539.171875 414.582031 531.121094 411.429688 523.203125 C 401.292969 496.554688 382.207031 476.609375 353.996094 466.097656 L 411.179688 427.816406 C 417.6875 456.058594 444.730469 468.648438 470.792969 458.847656 C 485.527344 452.113281 496.683594 437.460938 496.722656 419.984375 L 497.21875 208.65625 C 497.257812 191.410156 511.882812 179.496094 526.726562 178.980469 C 542.820312 178.421875 557.972656 191.257812 558.003906 209.554688 L 558.539062 511.445312 C 558.597656 545.042969 549.949219 575.285156 530.804688 602.011719 C 512.296875 627.851562 521.945312 654.367188 518.152344 683.390625 L 315.402344 683.390625 C 315.402344 683.390625 314.550781 637.484375 314.550781 637.484375 C 314.363281 627.1875 310.148438 617.65625 304.46875 609.34375 C 290.996094 589.628906 277.304688 571.0625 264.851562 550.703125 C 246.15625 520.128906 250.632812 476.695312 257.261719 442.484375 C 259.730469 429.738281 267.417969 420.039062 278.6875 414.285156 L 330.828125 387.660156 L 382.421875 360.980469 Z M 382.421875 360.972656 " fill-opacity="1" fill-rule="nonzero"/></g><g clip-path="url(#5f2154544d)"><path fill="#ffc700" d="M 335.835938 371.277344 L 274.769531 402.640625 L 274.730469 157.679688 C 274.730469 147.15625 279.9375 138.777344 286.320312 133.554688 C 294.554688 126.8125 305.476562 124.546875 315.402344 128.410156 C 328.054688 133.328125 335.851562 144.980469 335.972656 158.945312 L 335.835938 371.285156 Z M 335.835938 371.277344 " fill-opacity="1" fill-rule="nonzero"/></g><path fill="#ffc700" d="M 423.796875 410.554688 C 438.695312 369.121094 423.425781 364.113281 423.222656 357.945312 C 422.691406 341.816406 422.242188 326.28125 422.871094 310.007812 C 423.550781 292.566406 437.523438 280.09375 453.546875 279.976562 C 469.535156 279.851562 484.09375 292.417969 484.140625 310.21875 L 484.402344 420.273438 C 484.425781 431.699219 476.675781 441.15625 469.464844 445.578125 C 459.414062 451.746094 447.277344 451.910156 437.828125 445.765625 C 426.839844 438.621094 418.808594 424.441406 423.796875 410.5625 Z M 423.796875 410.554688 " fill-opacity="1" fill-rule="nonzero"/><path fill="#ffc700" d="M 380.421875 349.046875 L 349.027344 364.652344 L 348.664062 298.609375 C 348.605469 287.660156 355.574219 278.523438 362.417969 274.027344 C 371.949219 267.773438 382.988281 266.890625 392.699219 271.644531 C 405.597656 277.957031 411.304688 291.425781 410.507812 305.4375 C 409.675781 320.09375 411.3125 333.808594 409.714844 347.90625 C 400.320312 346.082031 390.070312 344.257812 380.429688 349.046875 Z M 380.421875 349.046875 " fill-opacity="1" fill-rule="nonzero"/></g></g></svg>