<svg xmlns="http://www.w3.org/2000/svg" xmlns:xlink="http://www.w3.org/1999/xlink" width="1080" zoomAndPan="magnify" viewBox="0 0 810 809.999993" height="1080" preserveAspectRatio="xMidYMid meet" version="1.0"><defs><clipPath id="d1bf8a77e3"><path d="M 0 0 L 809.003906 0 L 809.003906 809.003906 L 0 809.003906 Z M 0 0 " clip-rule="nonzero"/></clipPath><clipPath id="b7e4999863"><path d="M 404.980469 0 C 181.316406 0 0 181.316406 0 404.980469 C 0 628.644531 181.316406 809.957031 404.980469 809.957031 C 628.644531 809.957031 809.957031 628.644531 809.957031 404.980469 C 809.957031 181.316406 628.644531 0 404.980469 0 Z M 404.980469 0 " clip-rule="nonzero"/></clipPath><clipPath id="8417955bbe"><path d="M 223 113.105469 L 587 113.105469 L 587 697 L 223 697 Z M 223 113.105469 " clip-rule="nonzero"/></clipPath><clipPath id="a5028ebc73"><rect x="0" width="810" y="0" height="810"/></clipPath></defs><g transform="matrix(1, 0, 0, 1, 0, 0.000000000000039746)"><g clip-path="url(#a5028ebc73)"><g clip-path="url(#d1bf8a77e3)"><g clip-path="url(#b7e4999863)"><path stroke-linecap="butt" transform="matrix(3.210338, 0, 0, 3.210338, 0.0000035, 0.00002)" fill="none" stroke-linejoin="miter" d="M 126.14886 -0.00000622987 C 56.478915 -0.00000622987 -0.00000109023 56.47891 -0.00000109023 126.148854 C -0.00000109023 195.818799 56.478915 252.296498 126.14886 252.296498 C 195.818804 252.296498 252.296503 195.818799 252.296503 126.148854 C 252.296503 56.47891 195.818804 -0.00000622987 126.14886 -0.00000622987 Z M 126.14886 -0.00000622987 " stroke="#ffc700" stroke-width="4.205164" stroke-opacity="1" stroke-miterlimit="4"/></g></g><g clip-path="url(#8417955bbe)"><path fill="#ffc700" d="M 540.351562 696.886719 L 269.574219 696.886719 C 268.660156 696.886719 267.746094 696.859375 266.832031 696.804688 C 265.921875 696.75 265.011719 696.667969 264.105469 696.558594 C 263.195312 696.449219 262.292969 696.3125 261.394531 696.148438 C 260.496094 695.984375 259.601562 695.792969 258.714844 695.574219 C 257.828125 695.359375 256.945312 695.113281 256.074219 694.84375 C 255.199219 694.574219 254.335938 694.277344 253.480469 693.957031 C 252.625 693.632812 251.78125 693.285156 250.945312 692.914062 C 250.113281 692.539062 249.289062 692.140625 248.480469 691.71875 C 247.667969 691.296875 246.871094 690.851562 246.089844 690.382812 C 245.304688 689.910156 244.535156 689.417969 243.78125 688.902344 C 243.027344 688.386719 242.289062 687.847656 241.566406 687.285156 C 240.847656 686.726562 240.140625 686.144531 239.453125 685.539062 C 238.769531 684.9375 238.101562 684.316406 237.449219 683.671875 C 236.800781 683.027344 236.171875 682.367188 235.5625 681.6875 C 234.953125 681.003906 234.363281 680.304688 233.796875 679.589844 C 233.226562 678.875 232.683594 678.140625 232.160156 677.390625 C 231.636719 676.644531 231.132812 675.878906 230.65625 675.101562 C 230.179688 674.320312 229.726562 673.527344 229.292969 672.722656 C 228.863281 671.914062 228.457031 671.097656 228.078125 670.265625 C 227.695312 669.4375 227.339844 668.59375 227.011719 667.742188 C 226.679688 666.890625 226.375 666.03125 226.097656 665.160156 C 225.816406 664.289062 225.566406 663.410156 225.339844 662.523438 C 225.113281 661.640625 224.914062 660.75 224.742188 659.851562 C 224.570312 658.953125 224.421875 658.050781 224.304688 657.144531 C 224.1875 656.238281 224.09375 655.328125 224.03125 654.417969 C 223.96875 653.507812 223.929688 652.59375 223.921875 651.679688 C 223.914062 650.765625 223.933594 649.851562 223.976562 648.941406 C 224.023438 648.027344 224.097656 647.117188 224.199219 646.207031 C 224.296875 645.300781 224.425781 644.394531 224.582031 643.496094 C 224.734375 642.59375 224.917969 641.699219 225.125 640.808594 C 225.335938 639.917969 225.570312 639.035156 225.832031 638.160156 C 226.09375 637.285156 226.382812 636.417969 226.695312 635.558594 L 325.613281 364.933594 C 323.621094 363.539062 321.664062 362.09375 319.75 360.59375 C 317.832031 359.097656 315.953125 357.550781 314.117188 355.953125 C 312.28125 354.355469 310.492188 352.710938 308.742188 351.019531 C 306.992188 349.328125 305.289062 347.589844 303.632812 345.808594 C 301.972656 344.027344 300.363281 342.203125 298.804688 340.335938 C 297.242188 338.472656 295.730469 336.566406 294.269531 334.617188 C 292.808594 332.671875 291.402344 330.691406 290.046875 328.667969 C 288.691406 326.648438 287.386719 324.59375 286.140625 322.503906 C 284.890625 320.417969 283.699219 318.296875 282.566406 316.144531 C 281.429688 313.992188 280.351562 311.8125 279.328125 309.601562 C 278.308594 307.394531 277.347656 305.160156 276.445312 302.902344 C 275.539062 300.640625 274.699219 298.359375 273.914062 296.054688 C 273.132812 293.753906 272.410156 291.429688 271.75 289.085938 C 271.089844 286.746094 270.492188 284.386719 269.957031 282.015625 C 269.421875 279.640625 268.949219 277.253906 268.539062 274.855469 C 268.128906 272.457031 267.78125 270.050781 267.5 267.632812 C 267.214844 265.214844 266.996094 262.792969 266.839844 260.367188 C 266.6875 257.9375 266.59375 255.507812 266.566406 253.074219 C 266.539062 250.640625 266.578125 248.207031 266.679688 245.777344 C 266.78125 243.347656 266.945312 240.917969 267.175781 238.496094 C 267.402344 236.074219 267.695312 233.660156 268.054688 231.253906 C 268.410156 228.847656 268.828125 226.449219 269.3125 224.066406 C 269.796875 221.679688 270.339844 219.308594 270.949219 216.953125 C 271.558594 214.597656 272.226562 212.257812 272.957031 209.9375 C 273.6875 207.617188 274.480469 205.316406 275.332031 203.039062 C 276.1875 200.761719 277.097656 198.503906 278.070312 196.273438 C 279.042969 194.042969 280.070312 191.839844 281.160156 189.664062 C 282.246094 187.488281 283.390625 185.339844 284.59375 183.222656 C 285.792969 181.109375 287.050781 179.023438 288.359375 176.976562 C 289.671875 174.925781 291.035156 172.910156 292.453125 170.933594 C 293.867188 168.953125 295.335938 167.015625 296.855469 165.113281 C 298.375 163.214844 299.945312 161.355469 301.5625 159.535156 C 303.179688 157.71875 304.84375 155.945312 306.554688 154.214844 C 308.265625 152.484375 310.019531 150.800781 311.820312 149.164062 C 313.621094 147.527344 315.460938 145.9375 317.34375 144.398438 C 319.230469 142.855469 321.152344 141.367188 323.113281 139.929688 C 325.074219 138.488281 327.074219 137.101562 329.109375 135.769531 C 331.144531 134.4375 333.214844 133.15625 335.316406 131.933594 C 337.417969 130.707031 339.554688 129.539062 341.71875 128.425781 C 343.882812 127.316406 346.074219 126.261719 348.292969 125.265625 C 350.515625 124.269531 352.757812 123.332031 355.027344 122.453125 C 357.296875 121.578125 359.589844 120.757812 361.902344 120 C 364.214844 119.246094 366.542969 118.550781 368.894531 117.914062 C 371.242188 117.28125 373.605469 116.710938 375.984375 116.199219 C 378.367188 115.691406 380.757812 115.242188 383.160156 114.859375 C 385.5625 114.476562 387.972656 114.15625 390.394531 113.902344 C 392.8125 113.644531 395.238281 113.453125 397.667969 113.324219 C 400.097656 113.195312 402.527344 113.132812 404.960938 113.132812 C 407.394531 113.132812 409.828125 113.195312 412.257812 113.324219 C 414.6875 113.453125 417.113281 113.644531 419.53125 113.902344 C 421.949219 114.15625 424.363281 114.476562 426.765625 114.859375 C 429.167969 115.242188 431.558594 115.691406 433.9375 116.199219 C 436.316406 116.710938 438.683594 117.28125 441.03125 117.914062 C 443.378906 118.550781 445.710938 119.246094 448.023438 120 C 450.335938 120.757812 452.628906 121.578125 454.894531 122.453125 C 457.164062 123.332031 459.410156 124.269531 461.628906 125.265625 C 463.851562 126.261719 466.042969 127.316406 468.207031 128.425781 C 470.371094 129.539062 472.503906 130.707031 474.605469 131.933594 C 476.710938 133.15625 478.777344 134.433594 480.8125 135.769531 C 482.847656 137.101562 484.847656 138.488281 486.808594 139.929688 C 488.773438 141.367188 490.695312 142.855469 492.578125 144.398438 C 494.460938 145.9375 496.304688 147.527344 498.105469 149.164062 C 499.902344 150.800781 501.660156 152.484375 503.371094 154.214844 C 505.082031 155.945312 506.746094 157.71875 508.363281 159.535156 C 509.980469 161.355469 511.546875 163.214844 513.066406 165.113281 C 514.585938 167.015625 516.054688 168.953125 517.472656 170.933594 C 518.890625 172.910156 520.253906 174.925781 521.5625 176.976562 C 522.875 179.023438 524.132812 181.109375 525.332031 183.222656 C 526.53125 185.339844 527.675781 187.488281 528.765625 189.664062 C 529.851562 191.839844 530.882812 194.042969 531.855469 196.273438 C 532.824219 198.503906 533.738281 200.761719 534.589844 203.039062 C 535.441406 205.316406 536.234375 207.617188 536.964844 209.9375 C 537.699219 212.257812 538.367188 214.597656 538.976562 216.953125 C 539.582031 219.308594 540.128906 221.679688 540.613281 224.066406 C 541.09375 226.449219 541.515625 228.847656 541.871094 231.253906 C 542.226562 233.660156 542.519531 236.074219 542.75 238.496094 C 542.980469 240.917969 543.144531 243.347656 543.246094 245.777344 C 543.347656 248.207031 543.382812 250.640625 543.355469 253.074219 C 543.328125 255.507812 543.238281 257.9375 543.082031 260.367188 C 542.929688 262.792969 542.707031 265.214844 542.425781 267.632812 C 542.144531 270.050781 541.796875 272.457031 541.386719 274.855469 C 540.976562 277.253906 540.503906 279.640625 539.96875 282.015625 C 539.433594 284.386719 538.832031 286.746094 538.171875 289.085938 C 537.511719 291.429688 536.792969 293.753906 536.007812 296.054688 C 535.226562 298.359375 534.382812 300.640625 533.480469 302.902344 C 532.578125 305.160156 531.617188 307.394531 530.59375 309.601562 C 529.574219 311.8125 528.496094 313.992188 527.359375 316.144531 C 526.222656 318.296875 525.03125 320.417969 523.785156 322.503906 C 522.535156 324.59375 521.234375 326.648438 519.878906 328.667969 C 518.523438 330.691406 517.113281 332.671875 515.652344 334.617188 C 514.191406 336.566406 512.683594 338.472656 511.121094 340.335938 C 509.558594 342.203125 507.949219 344.027344 506.292969 345.808594 C 504.636719 347.589844 502.933594 349.328125 501.183594 351.019531 C 499.433594 352.710938 497.640625 354.355469 495.804688 355.953125 C 493.96875 357.550781 492.09375 359.097656 490.175781 360.59375 C 488.257812 362.09375 486.304688 363.539062 484.308594 364.933594 L 583.230469 635.5625 C 583.542969 636.421875 583.832031 637.289062 584.09375 638.164062 C 584.355469 639.039062 584.589844 639.921875 584.796875 640.8125 C 585.007812 641.703125 585.1875 642.597656 585.34375 643.496094 C 585.5 644.398438 585.625 645.300781 585.726562 646.210938 C 585.828125 647.117188 585.902344 648.03125 585.945312 648.941406 C 585.992188 649.855469 586.011719 650.769531 586.003906 651.683594 C 585.992188 652.597656 585.957031 653.507812 585.894531 654.421875 C 585.828125 655.332031 585.738281 656.242188 585.621094 657.148438 C 585.5 658.054688 585.355469 658.957031 585.183594 659.851562 C 585.011719 660.75 584.8125 661.640625 584.585938 662.527344 C 584.359375 663.414062 584.105469 664.289062 583.828125 665.160156 C 583.550781 666.03125 583.246094 666.890625 582.914062 667.746094 C 582.582031 668.597656 582.226562 669.4375 581.847656 670.269531 C 581.464844 671.097656 581.058594 671.917969 580.628906 672.722656 C 580.199219 673.53125 579.746094 674.324219 579.269531 675.101562 C 578.789062 675.882812 578.289062 676.644531 577.765625 677.394531 C 577.242188 678.144531 576.695312 678.875 576.128906 679.59375 C 575.5625 680.308594 574.972656 681.007812 574.363281 681.6875 C 573.753906 682.367188 573.125 683.03125 572.476562 683.671875 C 571.824219 684.316406 571.15625 684.941406 570.46875 685.542969 C 569.785156 686.144531 569.078125 686.726562 568.359375 687.289062 C 567.636719 687.847656 566.898438 688.386719 566.144531 688.902344 C 565.390625 689.417969 564.621094 689.914062 563.835938 690.382812 C 563.054688 690.851562 562.257812 691.300781 561.445312 691.722656 C 560.636719 692.144531 559.8125 692.542969 558.980469 692.914062 C 558.144531 693.289062 557.300781 693.636719 556.445312 693.957031 C 555.589844 694.28125 554.726562 694.574219 553.851562 694.847656 C 552.980469 695.117188 552.097656 695.359375 551.210938 695.578125 C 550.324219 695.792969 549.429688 695.984375 548.53125 696.148438 C 547.632812 696.3125 546.726562 696.449219 545.820312 696.558594 C 544.914062 696.667969 544.003906 696.75 543.09375 696.804688 C 542.179688 696.859375 541.265625 696.886719 540.351562 696.886719 Z M 264.546875 649.394531 C 264.398438 649.800781 264.300781 650.214844 264.253906 650.644531 C 264.207031 651.070312 264.210938 651.5 264.265625 651.925781 C 264.320312 652.351562 264.425781 652.765625 264.582031 653.167969 C 264.738281 653.570312 264.941406 653.949219 265.1875 654.300781 C 265.433594 654.652344 265.71875 654.972656 266.042969 655.253906 C 266.367188 655.539062 266.71875 655.78125 267.101562 655.980469 C 267.480469 656.179688 267.882812 656.328125 268.300781 656.433594 C 268.71875 656.535156 269.140625 656.585938 269.574219 656.585938 L 540.351562 656.585938 C 540.78125 656.585938 541.207031 656.535156 541.625 656.433594 C 542.042969 656.328125 542.445312 656.179688 542.824219 655.980469 C 543.207031 655.78125 543.5625 655.539062 543.882812 655.257812 C 544.207031 654.972656 544.492188 654.652344 544.738281 654.300781 C 544.988281 653.949219 545.1875 653.570312 545.34375 653.167969 C 545.5 652.769531 545.605469 652.351562 545.660156 651.925781 C 545.714844 651.5 545.71875 651.070312 545.671875 650.644531 C 545.625 650.214844 545.527344 649.800781 545.378906 649.394531 L 440.789062 363.253906 C 440.371094 362.117188 440.0625 360.949219 439.855469 359.753906 C 439.648438 358.5625 439.550781 357.359375 439.5625 356.144531 C 439.574219 354.933594 439.695312 353.734375 439.921875 352.542969 C 440.152344 351.351562 440.484375 350.191406 440.921875 349.0625 C 441.359375 347.933594 441.894531 346.851562 442.527344 345.816406 C 443.160156 344.785156 443.878906 343.816406 444.6875 342.910156 C 445.492188 342.007812 446.375 341.183594 447.332031 340.4375 C 448.289062 339.695312 449.304688 339.039062 450.375 338.480469 C 452.800781 337.214844 455.167969 335.847656 457.476562 334.382812 C 459.789062 332.921875 462.03125 331.363281 464.210938 329.710938 C 466.390625 328.058594 468.5 326.320312 470.53125 324.492188 C 472.566406 322.664062 474.519531 320.753906 476.394531 318.761719 C 478.269531 316.773438 480.058594 314.707031 481.761719 312.566406 C 483.460938 310.425781 485.070312 308.21875 486.589844 305.941406 C 488.105469 303.667969 489.523438 301.332031 490.847656 298.9375 C 492.167969 296.542969 493.386719 294.097656 494.503906 291.601562 C 495.621094 289.105469 496.632812 286.566406 497.539062 283.988281 C 498.445312 281.40625 499.238281 278.792969 499.925781 276.144531 C 500.613281 273.5 501.1875 270.828125 501.652344 268.132812 C 502.113281 265.4375 502.464844 262.726562 502.699219 260.003906 C 502.9375 257.277344 503.058594 254.550781 503.070312 251.8125 C 503.078125 249.078125 502.972656 246.347656 502.75 243.625 C 502.53125 240.898438 502.199219 238.1875 501.75 235.488281 C 501.304688 232.789062 500.746094 230.117188 500.074219 227.464844 C 499.40625 224.8125 498.625 222.195312 497.734375 219.609375 C 496.847656 217.023438 495.851562 214.476562 494.75 211.976562 C 493.644531 209.472656 492.441406 207.019531 491.132812 204.617188 C 489.828125 202.214844 488.421875 199.871094 486.917969 197.585938 C 485.414062 195.304688 483.820312 193.085938 482.132812 190.933594 C 480.441406 188.78125 478.667969 186.707031 476.804688 184.703125 C 474.941406 182.699219 473 180.78125 470.976562 178.941406 C 468.953125 177.097656 466.855469 175.347656 464.6875 173.683594 C 462.519531 172.015625 460.28125 170.445312 457.980469 168.96875 C 455.679688 167.488281 453.324219 166.109375 450.90625 164.828125 C 448.488281 163.550781 446.023438 162.371094 443.511719 161.296875 C 440.996094 160.222656 438.441406 159.253906 435.84375 158.394531 C 433.25 157.53125 430.621094 156.78125 427.964844 156.140625 C 425.304688 155.5 422.625 154.96875 419.921875 154.554688 C 417.21875 154.136719 414.503906 153.832031 411.773438 153.644531 C 409.046875 153.453125 406.316406 153.375 403.582031 153.414062 C 350.59375 154.144531 307.207031 197.859375 306.867188 250.859375 C 306.847656 253.101562 306.90625 255.34375 307.039062 257.582031 C 307.171875 259.820312 307.386719 262.050781 307.671875 264.273438 C 307.960938 266.496094 308.324219 268.707031 308.765625 270.90625 C 309.203125 273.105469 309.71875 275.285156 310.308594 277.449219 C 310.898438 279.613281 311.5625 281.753906 312.300781 283.871094 C 313.039062 285.988281 313.847656 288.078125 314.730469 290.140625 C 315.609375 292.203125 316.5625 294.230469 317.582031 296.230469 C 318.601562 298.226562 319.691406 300.183594 320.847656 302.105469 C 322 304.027344 323.222656 305.90625 324.507812 307.746094 C 325.792969 309.582031 327.136719 311.375 328.546875 313.121094 C 329.953125 314.863281 331.417969 316.558594 332.945312 318.203125 C 334.46875 319.847656 336.046875 321.4375 337.683594 322.972656 C 339.316406 324.507812 341 325.988281 342.738281 327.40625 C 344.472656 328.828125 346.253906 330.183594 348.082031 331.480469 C 349.914062 332.777344 351.785156 334.011719 353.699219 335.179688 C 355.613281 336.347656 357.5625 337.449219 359.554688 338.484375 C 360.628906 339.046875 361.640625 339.699219 362.597656 340.441406 C 363.554688 341.1875 364.4375 342.011719 365.242188 342.914062 C 366.050781 343.820312 366.769531 344.789062 367.402344 345.820312 C 368.035156 346.855469 368.570312 347.9375 369.007812 349.066406 C 369.445312 350.199219 369.777344 351.359375 370.007812 352.546875 C 370.234375 353.738281 370.355469 354.9375 370.367188 356.152344 C 370.378906 357.363281 370.28125 358.566406 370.074219 359.757812 C 369.871094 360.953125 369.558594 362.121094 369.144531 363.257812 Z M 264.546875 649.394531 " fill-opacity="1" fill-rule="nonzero"/></g></g></g></svg>