<svg xmlns="http://www.w3.org/2000/svg" xmlns:xlink="http://www.w3.org/1999/xlink" width="1080" zoomAndPan="magnify" viewBox="0 0 810 809.999993" height="1080" preserveAspectRatio="xMidYMid meet" version="1.0"><defs><clipPath id="277d6e5bcd"><path d="M 0 0 L 809.003906 0 L 809.003906 809.003906 L 0 809.003906 Z M 0 0 " clip-rule="nonzero"/></clipPath><clipPath id="3ed59b9f26"><path d="M 404.980469 0 C 181.316406 0 0 181.316406 0 404.980469 C 0 628.644531 181.316406 809.957031 404.980469 809.957031 C 628.644531 809.957031 809.957031 628.644531 809.957031 404.980469 C 809.957031 181.316406 628.644531 0 404.980469 0 Z M 404.980469 0 " clip-rule="nonzero"/></clipPath><clipPath id="e5dd7ccc3d"><path d="M 109.015625 255.15625 L 699.714844 255.15625 L 699.714844 553.71875 L 109.015625 553.71875 Z M 109.015625 255.15625 " clip-rule="nonzero"/></clipPath><clipPath id="a534e307dd"><rect x="0" width="810" y="0" height="810"/></clipPath></defs><g transform="matrix(1, 0, 0, 1, 0, 0.000000000000039746)"><g clip-path="url(#a534e307dd)"><g clip-path="url(#277d6e5bcd)"><g clip-path="url(#3ed59b9f26)"><path stroke-linecap="butt" transform="matrix(3.210338, 0, 0, 3.210338, 0.0000035, 0.00002)" fill="none" stroke-linejoin="miter" d="M 126.14886 -0.00000622987 C 56.478915 -0.00000622987 -0.00000109023 56.47891 -0.00000109023 126.148854 C -0.00000109023 195.818799 56.478915 252.296498 126.14886 252.296498 C 195.818804 252.296498 252.296503 195.818799 252.296503 126.148854 C 252.296503 56.47891 195.818804 -0.00000622987 126.14886 -0.00000622987 Z M 126.14886 -0.00000622987 " stroke="#ffc700" stroke-width="4.205164" stroke-opacity="1" stroke-miterlimit="4"/></g></g><g clip-path="url(#e5dd7ccc3d)"><path fill="#ffc700" d="M 700.429688 454.808594 C 700.433594 458.0625 700.28125 461.304688 699.96875 464.539062 C 699.65625 467.777344 699.183594 470.988281 698.558594 474.179688 C 697.929688 477.367188 697.148438 480.519531 696.210938 483.632812 C 695.273438 486.746094 694.1875 489.804688 692.953125 492.8125 C 691.714844 495.816406 690.335938 498.757812 688.808594 501.628906 C 687.285156 504.5 685.625 507.289062 683.824219 509.996094 C 682.027344 512.707031 680.101562 515.320312 678.046875 517.839844 C 675.992188 520.359375 673.820312 522.769531 671.527344 525.078125 C 669.257812 527.378906 666.878906 529.5625 664.390625 531.628906 C 661.90625 533.691406 659.320312 535.632812 656.640625 537.441406 C 653.960938 539.25 651.199219 540.921875 648.355469 542.460938 C 645.511719 543.996094 642.597656 545.386719 639.613281 546.636719 C 636.632812 547.882812 633.59375 548.980469 630.503906 549.929688 C 627.414062 550.875 624.28125 551.667969 621.113281 552.304688 C 617.941406 552.941406 614.75 553.417969 611.53125 553.742188 C 608.3125 554.0625 605.089844 554.222656 601.855469 554.222656 L 405.828125 554.222656 L 405.828125 268.183594 L 423.078125 262.761719 C 430.347656 260.492188 437.738281 258.757812 445.257812 257.5625 C 452.679688 256.390625 460.148438 255.789062 467.660156 255.757812 L 473.484375 255.757812 C 477.578125 255.75 481.660156 255.9375 485.734375 256.316406 C 489.804688 256.699219 493.851562 257.277344 497.871094 258.042969 C 501.886719 258.8125 505.859375 259.769531 509.789062 260.917969 C 513.714844 262.0625 517.578125 263.394531 521.378906 264.910156 C 525.179688 266.425781 528.898438 268.117188 532.535156 269.988281 C 536.175781 271.859375 539.714844 273.898438 543.160156 276.105469 C 546.605469 278.316406 549.9375 280.683594 553.152344 283.207031 C 556.371094 285.734375 559.460938 288.40625 562.425781 291.226562 C 566.976562 295.550781 571.199219 300.175781 575.085938 305.101562 C 578.976562 310.027344 582.492188 315.203125 585.640625 320.632812 C 588.789062 326.066406 591.53125 331.691406 593.871094 337.515625 C 596.214844 343.339844 598.128906 349.296875 599.613281 355.394531 L 604.992188 355.394531 C 608.15625 355.496094 611.308594 355.75 614.445312 356.152344 C 617.585938 356.558594 620.699219 357.113281 623.785156 357.816406 C 626.871094 358.523438 629.914062 359.375 632.917969 360.375 C 635.917969 361.375 638.867188 362.519531 641.761719 363.800781 C 644.652344 365.085938 647.476562 366.507812 650.230469 368.066406 C 652.988281 369.625 655.660156 371.3125 658.253906 373.128906 C 660.84375 374.945312 663.34375 376.882812 665.75 378.9375 C 668.152344 380.996094 670.453125 383.167969 672.648438 385.445312 C 674.851562 387.746094 676.941406 390.144531 678.914062 392.640625 C 680.886719 395.140625 682.738281 397.726562 684.464844 400.402344 C 686.191406 403.078125 687.785156 405.828125 689.25 408.65625 C 690.710938 411.484375 692.039062 414.375 693.222656 417.328125 C 694.410156 420.285156 695.453125 423.289062 696.355469 426.34375 C 697.253906 429.394531 698.007812 432.484375 698.613281 435.613281 C 699.214844 438.738281 699.671875 441.886719 699.972656 445.054688 C 700.277344 448.222656 700.429688 451.402344 700.429688 454.585938 Z M 158.050781 380.25 L 158.050781 529.371094 L 108.765625 529.371094 L 108.765625 380.25 Z M 231.980469 330.542969 L 231.980469 554.222656 L 182.472656 554.222656 L 182.472656 330.542969 Z M 306.136719 330.542969 L 306.136719 554.222656 L 256.625 554.222656 L 256.625 330.542969 Z M 379.839844 305.460938 L 379.839844 554.222656 L 330.554688 554.222656 L 330.554688 305.464844 Z M 651.140625 454.808594 L 651.140625 454.585938 C 651.148438 452.996094 651.074219 451.410156 650.929688 449.832031 C 650.78125 448.25 650.558594 446.679688 650.257812 445.117188 C 649.960938 443.558594 649.589844 442.015625 649.140625 440.492188 C 648.695312 438.96875 648.175781 437.46875 647.585938 435.996094 C 646.996094 434.519531 646.335938 433.078125 645.605469 431.667969 C 644.878906 430.253906 644.082031 428.882812 643.222656 427.546875 C 642.359375 426.214844 641.4375 424.925781 640.453125 423.679688 C 639.46875 422.433594 638.425781 421.238281 637.324219 420.089844 C 636.226562 418.945312 635.074219 417.855469 633.867188 416.820312 C 632.664062 415.785156 631.410156 414.808594 630.113281 413.894531 C 628.816406 412.980469 627.476562 412.128906 626.097656 411.34375 C 624.714844 410.558594 623.300781 409.839844 621.851562 409.1875 C 620.402344 408.539062 618.925781 407.960938 617.421875 407.449219 C 615.917969 406.941406 614.390625 406.507812 612.847656 406.144531 C 611.300781 405.785156 609.738281 405.496094 608.164062 405.285156 C 606.589844 405.074219 605.011719 404.9375 603.425781 404.875 L 555.257812 405.101562 L 553.914062 381.605469 C 553.609375 376.492188 552.828125 371.453125 551.566406 366.484375 C 550.308594 361.519531 548.597656 356.71875 546.429688 352.074219 C 544.261719 347.433594 541.679688 343.039062 538.683594 338.882812 C 535.683594 334.730469 532.320312 330.894531 528.597656 327.378906 C 524.910156 323.890625 520.921875 320.78125 516.644531 318.046875 C 512.363281 315.316406 507.863281 313.011719 503.144531 311.136719 C 498.425781 309.257812 493.570312 307.84375 488.585938 306.890625 C 483.597656 305.9375 478.5625 305.460938 473.484375 305.464844 C 470.574219 305.464844 472.367188 305.234375 471.246094 305.464844 L 467.660156 305.464844 C 463.460938 305.53125 459.28125 305.832031 455.117188 306.367188 L 455.117188 504.742188 L 601.855469 504.742188 C 605.109375 504.738281 608.332031 504.414062 611.523438 503.769531 C 614.710938 503.125 617.804688 502.171875 620.804688 500.910156 C 623.804688 499.648438 626.652344 498.105469 629.34375 496.28125 C 632.039062 494.453125 634.523438 492.378906 636.804688 490.054688 C 639.078125 487.71875 641.105469 485.183594 642.890625 482.457031 C 644.671875 479.726562 646.179688 476.851562 647.40625 473.832031 C 648.636719 470.808594 649.566406 467.699219 650.191406 464.5 C 650.820312 461.300781 651.136719 458.070312 651.144531 454.808594 Z M 651.140625 454.808594 " fill-opacity="1" fill-rule="nonzero"/></g></g></g></svg>